<?xml version="1.0" encoding="UTF-8"?><svg xmlns="http://www.w3.org/2000/svg" xmlns:xlink="http://www.w3.org/1999/xlink" viewBox="0 0 500 500.01"><defs><style>.cls-1{fill:#fff;}.cls-2{clip-path:url(#clippath-1);}.cls-3{clip-path:url(#clippath);}.cls-4{fill:none;}.cls-5{fill:url(#Unbenannter_Verlauf_3);}</style><clipPath id="clippath"><rect class="cls-4" width="500" height="500"/></clipPath><clipPath id="clippath-1"><path class="cls-4" d="M243.55,29.17l-13.91,.48,1.24,36.35,6.32-.22-.48-13.49,7.52-.26c3.54,.09,6.99-1.08,9.74-3.31h0c2.31-2.17,3.49-5.29,3.21-8.45h0c.02-3.2-1.4-6.24-3.87-8.27h0c-2.57-1.99-5.77-3-9.02-2.85h-.77m-7.41,5.35l7.76-.27c1.82-.14,3.62,.46,5.01,1.65h0c1.27,1.2,1.98,2.88,1.96,4.63h0c.18,1.71-.41,3.42-1.61,4.65h0c-1.42,1.19-3.23,1.82-5.09,1.75h0l-7.59,.27-.43-12.68Zm-31.42-1.32c-2.74,.52-5.27,1.81-7.29,3.73h0c-1.99,1.96-3.37,4.46-3.95,7.19h0c-.68,3.16-.66,6.42,.06,9.57h0l.42,2.02c.6,3.12,1.88,6.06,3.76,8.63h0c1.63,2.25,3.89,3.97,6.49,4.94h0c2.62,.94,5.45,1.12,8.16,.51h0c2.74-.52,5.27-1.82,7.3-3.73h0c1.98-1.94,3.34-4.42,3.91-7.13h0c.65-3.16,.62-6.42-.1-9.56h0l-.41-1.98c-.61-3.15-1.89-6.13-3.77-8.73h0c-1.61-2.25-3.84-3.97-6.42-4.95h0c-1.54-.56-3.17-.84-4.81-.84h0c-1.13,0-2.25,.12-3.36,.36m-.42,29.59c-2.24-2.37-3.7-5.36-4.18-8.59h0l-.42-2.06c-.82-3.09-.66-6.37,.46-9.37h0c.99-2.36,3.12-4.04,5.64-4.46h0c2.49-.63,5.14,.06,7,1.84h0c2.22,2.38,3.66,5.39,4.12,8.62h0l.39,1.85c.87,3.16,.75,6.51-.34,9.6h0c-1,2.36-3.14,4.04-5.67,4.44h0c-.61,.13-1.22,.2-1.84,.2h0c-1.93,0-3.78-.74-5.16-2.08m82.95-29.06c-2.61,.99-4.86,2.74-6.48,5.02h0c-1.88,2.63-3.17,5.63-3.77,8.81h0l-.42,2.02c-.7,3.1-.7,6.31-.02,9.41h0c.6,2.71,1.99,5.19,3.98,7.12h0c2.02,1.91,4.54,3.21,7.27,3.73h0c2.72,.62,5.56,.44,8.19-.49h0c2.59-.99,4.83-2.73,6.43-4.99h0c1.87-2.63,3.14-5.64,3.73-8.81h0l.41-1.98c.71-3.13,.73-6.38,.05-9.52h0c-.58-2.7-1.95-5.18-3.94-7.11h0c-2.03-1.89-4.55-3.18-7.28-3.7h0c-1.09-.23-2.2-.35-3.31-.36h0c-1.66,0-3.3,.29-4.85,.87m1.64,31.01c-2.54-.44-4.69-2.15-5.68-4.53h0c-1.11-3.07-1.25-6.41-.38-9.56h0l.43-2.06c.49-3.16,1.95-6.09,4.17-8.4h0c1.84-1.76,4.46-2.45,6.93-1.83h0c2.54,.41,4.69,2.1,5.69,4.48h0c1.08,3.07,1.2,6.4,.34,9.54h0l-.38,1.85c-.46,3.24-1.9,6.27-4.12,8.67h0c-1.35,1.31-3.16,2.03-5.04,2.02h0c-.64,0-1.29-.07-1.92-.2m-130.93-16.17l1.82,4.76,10.51-3.99,11.13,29.22,5.87-2.23-11.13-29.25,10.6-4.03-1.81-4.74-26.98,10.26Zm149.34,25.63l5.9,2.29,5.59-14.37,13.64,5.32,1.83-4.7-13.64-5.31,3.93-10.08,15.64,6.08,1.85-4.75-21.54-8.4-13.21,33.92Zm52.9,8.93c56.07,37,89.81,99.68,89.83,166.85h0c-.01,65.48-32.09,126.81-85.87,164.17h0l7.39,10.62c57.25-39.78,91.4-105.07,91.41-174.79h0c-.02-71.52-35.95-138.25-95.65-177.65h0l-7.12,10.79ZM37.03,250c.02,69.72,34.17,135.01,91.43,174.79h0l7.39-10.62c-53.79-37.36-85.87-98.68-85.89-164.17h0c.03-67.18,33.78-129.85,89.84-166.86h0l-7.12-10.79c-59.7,39.39-95.63,106.13-95.65,177.65m41.79,0c-.03,21.31,3.93,42.44,11.69,62.29h0l3.61,9.22,80.46-80.49,47.03,47,9.15-9.15-56.18-56.12-75.37,75.37c-4.96-15.56-7.47-31.79-7.45-48.12h0c.1-87.35,70.89-158.14,158.24-158.24h0c87.35,.1,158.14,70.89,158.24,158.24h0c-.1,87.35-70.89,158.14-158.24,158.25h0c-30.41,.07-60.18-8.68-85.72-25.19h0l141.48-141.49,75.81,75.82c2.09-4.08,3.99-8.29,5.71-12.57h0l-81.52-81.52-161.53,161.54,6.19,4.43c29.01,20.83,63.85,32,99.57,31.91h0c94.49-.11,171.06-76.69,171.17-171.18h0c-.12-94.48-76.68-171.05-171.17-171.16h0c-94.49,.11-171.07,76.68-171.18,171.17m130.65-11.84l9.15,9.14,87.26-87.27,91.87,91.88c0-.64,.05-1.27,.05-1.91h0c-.01-5.81-.37-11.62-1.06-17.39h0l-90.87-90.87-96.41,96.42Zm43.67-13.56l31.67-18.33,4.44,8.89,16.98-43.65-53.09,53.09Zm-131.21,81.57l31.67-18.34,4.44,8.9,16.98-43.65-53.09,53.09Zm73.81,57.94l65.5-37.94,9.2,18.4,35.14-90.32-109.85,109.86Zm-41.36,52l10.24,4.91-13.67,28.52,5.71,2.73,13.67-28.51,10.33,4.96,2.23-4.65-26.3-12.61-2.22,4.65Zm175.09,2.02l-11.39,5.4,15.73,33.25,12.12-5.73c3.16-1.25,5.78-3.58,7.39-6.58h0c1.21-2.78,1.06-5.96-.4-8.62h0c-.77-1.75-2.08-3.21-3.75-4.16h0c-1.68-.89-3.61-1.16-5.47-.78h0c1.18-1.26,1.97-2.84,2.27-4.54h0c.25-1.6,0-3.25-.71-4.7h0c-1.05-2.67-3.34-4.67-6.13-5.34h0c-.68-.14-1.37-.21-2.07-.21h0c-2.64,.11-5.23,.8-7.59,2.02m-3.42,7.32l5.62-2.65c1.48-.85,3.2-1.2,4.89-.98h0c1.43,.42,2.57,1.49,3.09,2.89h0c.7,1.3,.75,2.85,.12,4.19h0c-.8,1.46-2.09,2.59-3.63,3.21h0l-5.67,2.69-4.41-9.35Zm6.43,13.58l6.89-3.25c2.44-1.56,5.68-.85,7.24,1.59,.24,.37,.43,.77,.57,1.19h0c.75,1.38,.84,3.02,.24,4.47h0c-.74,1.53-2.02,2.73-3.6,3.36h0l-6.42,3.02-4.91-10.39Zm-156.68,21.52l6.16,1.71,4.4-15.72,15.83,4.43-4.39,15.71,6.12,1.72,9.91-35.42-6.13-1.71-4.12,14.74-15.84-4.43,4.12-14.74-6.15-1.73-9.91,35.44Zm124.16-31.94c-2.72,.71-5.19,2.19-7.09,4.26h0c-1.88,2.1-3.09,4.72-3.48,7.51h0c-.47,3.24-.22,6.54,.71,9.67h0l.56,1.98c.82,3.11,2.31,5.99,4.37,8.46h0c1.8,2.15,4.19,3.73,6.88,4.54h0c2.7,.77,5.57,.76,8.26-.04h0c2.73-.71,5.2-2.18,7.12-4.26h0c1.86-2.09,3.07-4.69,3.46-7.46h0c.44-3.23,.19-6.51-.76-9.63h0l-.55-1.98c-.82-3.14-2.32-6.07-4.39-8.57h0c-1.78-2.15-4.16-3.74-6.84-4.54h0c-1.28-.37-2.6-.56-3.93-.56h0c-1.46,0-2.92,.21-4.33,.61m1.59,29.9c-2.42-2.24-4.09-5.17-4.79-8.4h0l-.57-2.05c-1.02-3.07-1.08-6.37-.17-9.48h0c.84-2.44,2.87-4.27,5.37-4.87h0c2.47-.81,5.19-.29,7.19,1.37h0c2.4,2.25,4.05,5.18,4.74,8.4h0l.52,1.85c1.1,3.13,1.21,6.51,.34,9.7h0c-.85,2.45-2.9,4.29-5.43,4.87h0c-.78,.22-1.58,.33-2.39,.34h0c-1.76-.01-3.46-.63-4.81-1.76m-26.93-24.16l2.77,25.62c.28,1.68-.08,3.41-1.01,4.84h0c-.92,1.26-2.34,2.04-3.89,2.14h0c-1.52,.28-3.09-.09-4.34-1.01h0c-1.18-1.09-1.87-2.61-1.92-4.22h0l-6.32,.67c.14,3.03,1.59,5.85,3.97,7.73h0c2.69,1.79,5.97,2.48,9.16,1.93h0c3.19-.2,6.18-1.65,8.31-4.03h0c2-2.42,2.86-5.59,2.37-8.69h0l-2.77-25.64-6.34,.66Zm-58.84,36.02l23.91,2.5,.53-5.07-17.56-1.84,1.18-11.25,15.01,1.56,.53-5.04-15.01-1.56,1.05-10.1,17.38,1.81,.54-5.13-23.74-2.48-3.82,36.59Z"/></clipPath><linearGradient id="Unbenannter_Verlauf_3" x1="1.56" y1="498.18" x2="4.42" y2="498.18" gradientTransform="translate(-195.45 74403.36) scale(148.85 -148.85)" gradientUnits="userSpaceOnUse"><stop offset="0" stop-color="#00467e"/><stop offset=".1" stop-color="#004883"/><stop offset=".2" stop-color="#004b88"/><stop offset=".3" stop-color="#004e8d"/><stop offset=".4" stop-color="#005092"/><stop offset=".5" stop-color="#005397"/><stop offset=".6" stop-color="#00569c"/><stop offset=".7" stop-color="#0059a0"/><stop offset=".8" stop-color="#005ba5"/><stop offset=".9" stop-color="#005eaa"/><stop offset="1" stop-color="#0060af"/></linearGradient></defs><g class="cls-3"><g id="Gruppe_52"><g id="Gruppe_51"><path id="Pfad_98" class="cls-1" d="M500,250C500,111.93,388.07,0,250,0,111.93,0,0,111.94,0,250.01c0,138.07,111.93,249.99,249.99,249.99,138.07,0,250.01-111.93,250.01-250.01"/></g></g></g><g class="cls-2"><g id="Gruppe_54"><g id="Gruppe_53"><path id="Pfad_100" class="cls-5" d="M0,0H500V500.01H0V0Z"/></g></g></g></svg>